<svg width="24" height="24" viewBox="0 0 24 24" fill="none" xmlns="http://www.w3.org/2000/svg">
<path d="M6.25229 3.93704L7.09149 3.36768C7.87468 2.83395 8.93449 3.0079 9.56495 3.77412L10.8199 5.29723C11.3672 5.96163 11.374 6.85258 10.9362 7.67056C10.3414 8.78129 9.87551 9.57975 9.87551 9.57975C10.2584 10.5369 10.8363 11.4038 11.5726 12.1253C12.433 12.9857 13.2297 13.4176 14.1181 13.8224C14.1181 13.8224 14.9243 13.3625 16.0273 12.7617C16.7639 12.3612 17.5216 12.1228 18.1741 12.6565L19.6947 13.8988C20.0634 14.2028 20.3162 14.6245 20.4108 15.093C20.5053 15.5615 20.4358 16.0482 20.214 16.4715L19.7218 17.3845C19.4898 17.8251 19.1407 18.1931 18.713 18.4481C18.2853 18.7031 17.7955 18.8351 17.2976 18.8296C14.9132 18.7956 12.0749 17.281 9.24845 14.463C6.4186 11.6383 5.15769 9.06045 5.00156 6.5556C4.93538 5.50173 5.42159 4.50131 6.25229 3.93704Z" stroke="#64748B" stroke-width="1.5"/>
</svg>
