<svg width="77" height="77" viewBox="0 0 77 77" fill="none" xmlns="http://www.w3.org/2000/svg">
<path d="M67.7708 38.1042C67.7708 54.0514 54.8429 66.9792 38.8958 66.9792C32.8132 66.9792 27.1699 65.0985 22.5156 61.8869L12.6458 64.3543L15.2321 54.6554C11.948 49.9687 10.0208 44.2616 10.0208 38.1042C10.0208 22.157 22.9485 9.22925 38.8958 9.22925C54.8429 9.22925 67.7708 22.157 67.7708 38.1042Z" fill="url(#paint0_linear_1003_2564)"/>
<path fill-rule="evenodd" clip-rule="evenodd" d="M38.8958 71.7917C57.5009 71.7917 72.5833 56.7094 72.5833 38.1042C72.5833 19.4991 57.5009 4.41675 38.8958 4.41675C20.2907 4.41675 5.20825 19.4991 5.20825 38.1042C5.20825 44.1461 6.79878 49.8164 9.58395 54.7194L5.20825 71.7917L22.8096 67.7103C27.5897 70.3129 33.07 71.7917 38.8958 71.7917ZM38.8958 66.6092C54.6386 66.6092 67.4007 53.8471 67.4007 38.1042C67.4007 22.3615 54.6386 9.59945 38.8958 9.59945C23.153 9.59945 10.391 22.3615 10.391 38.1042C10.391 44.1827 12.2935 49.8167 15.5355 54.4432L12.9823 64.0176L22.7256 61.5818C27.3202 64.7525 32.8912 66.6092 38.8958 66.6092Z" fill="white"/>
<path d="M30.4739 22.4637C29.6731 20.8549 28.4442 20.9974 27.2031 20.9974C24.9847 20.9974 21.5256 23.6545 21.5256 28.5999C21.5256 32.6528 23.3116 37.0892 29.3295 43.7258C35.1372 50.1308 42.7684 53.444 49.1035 53.3311C55.4387 53.2185 56.7422 47.7667 56.7422 45.9256C56.7422 45.1097 56.2357 44.7025 55.887 44.5918C53.7281 43.5557 49.7463 41.6252 48.8403 41.2626C47.9343 40.8999 47.4613 41.3906 47.1672 41.6574C46.3457 42.4402 44.7172 44.7478 44.1594 45.2668C43.6019 45.7858 42.7705 45.5231 42.4245 45.327C41.1514 44.8161 37.6996 43.2807 34.9483 40.6134C31.5454 37.3149 31.3457 36.1798 30.7046 35.1697C30.1919 34.3614 30.5682 33.8657 30.7559 33.6489C31.4891 32.8031 32.5014 31.497 32.9554 30.8481C33.4093 30.1989 33.049 29.2135 32.8327 28.5999C31.9027 25.9603 31.1147 23.7506 30.4739 22.4637Z" fill="white"/>
<defs>
<linearGradient id="paint0_linear_1003_2564" x1="64.1614" y1="16.448" x2="10.0208" y2="66.9792" gradientUnits="userSpaceOnUse">
<stop stop-color="#5BD066"/>
<stop offset="1" stop-color="#27B43E"/>
</linearGradient>
</defs>
</svg>
